#!OML:ASF G:\JayActor3\Patient Classification 1\Patient 1\Session 2\male.ASF
:FULLY-SPECIFIED
:DEGREES
2250
root 18.7972 16.2067 -8.77978 1711.2 96.1566 271.361
lowerback -1.92787 -6.29207 -6.56184
upperback 2.45742 -8.22721 2.10845
thorax 4.88422 -4.34255 5.25324
lowerneck -14.1042 -5.70356 0.68587
upperneck 18.5024 -10.3208 12.1648
head 8.7915 -3.44693 2.77497
rclavicle 3.88624e-014 -2.70347e-014
rhumerus 98.1831 35.7576 7.09711
rradius 82.8551
rwrist -23.996
rhand -5.42924 7.00817
rfingers 7.12502
rthumb 20.3809 -21.9423
lclavicle 3.88624e-014 -2.70347e-014
lhumerus -6.34749 -58.0757 107.42
lradius 51.8297
lwrist 13.2651
lhand -5.27126 9.33424
lfingers 7.12502
lthumb 20.5328 38.2684
rfemur -36.4442 7.01273 17.5857
rtibia 39.2194
rfoot -13.5119 -3.85273
rtoes 11.1694
lfemur 26.5056 15.7318 -23.0909
ltibia 15.0409
lfoot 4.68569 0.367225
ltoes -16.9137
2251
root 19.0396 16.2093 -8.77777 1714.42 95.775 275.002
lowerback -1.635 -6.29312 -6.17795
upperback 2.47921 -8.26372 2.2962
thorax 4.7186 -4.34854 5.26842
lowerneck -14.0952 -5.74077 0.600037
upperneck 18.1846 -10.3094 12.1304
head 8.68191 -3.47342 2.77562
rclavicle -2.06736e-014 0
rhumerus 98.6753 36.6236 8.32703
rradius 82.9413
rwrist -23.0313
rhand -4.99135 6.72465
rfingers 7.12502
rthumb 20.8017 -22.1803
lclavicle -2.06736e-014 0
lhumerus -7.6245 -57.678 108.655
lradius 50.7927
lwrist 13.2616
lhand -6.21694 9.66058
lfingers 7.12502
lthumb 19.6238 38.6902
rfemur -35.7813 7.2616 18.1004
rtibia 40.3524
rfoot -12.7838 -4.79613
rtoes 12.9055
lfemur 24.8384 15.3634 -22.1454
ltibia 19.8193
lfoot 6.12896 0.710556
ltoes -14.5766
2252
root 19.2757 16.2091 -8.77578 1718.11 95.3542 279.135
lowerback -1.30471 -6.27856 -5.73774
upperback 2.51123 -8.2788 2.4937
thorax 4.53268 -4.34192 5.26888
lowerneck -14.0574 -5.79008 0.499373
upperneck 17.8416 -10.3146 12.1359
head 8.56337 -3.50666 2.79078
rclavicle 7.90169e-014 -1.59028e-015
rhumerus 99.1598 37.5397 9.55501
rradius 82.8486
rwrist -22.0358
rhand -4.56988 6.48414
rfingers 7.12502
rthumb 21.2066 -22.3759
lclavicle 7.90169e-014 -1.59028e-015
lhumerus -8.7669 -57.349 109.706
lradius 49.6822
lwrist 13.3748
lhand -7.26279 10.0217
lfingers 7.12502
lthumb 18.6181 39.1508
rfemur -35.0172 7.39945 18.749
rtibia 41.3886
rfoot -12.2459 -5.43082
rtoes 14.4918
lfemur 23.158 15.0675 -21.0962
ltibia 24.535
lfoot 7.84306 1.06412
ltoes -12.5751
2253
root 19.5075 16.2074 -8.77284 1722.75 94.949 284.211
lowerback -0.97734 -6.25489 -5.28553
upperback 2.55607 -8.2765 2.68111
thorax 4.35635 -4.32649 5.25255
lowerneck -14.0062 -5.85763 0.393912
upperneck 17.4799 -10.3497 12.1877
head 8.44202 -3.5504 2.81899
rclavicle 2.11706e-014 1.43125e-014
rhumerus 99.6094 38.5 10.7573
rradius 82.575
rwrist -21.067
rhand -4.21313 6.26825
rfingers 7.12502
rthumb 21.5493 -22.5529
lclavicle 2.11706e-014 1.43125e-014
lhumerus -9.77946 -57.1193 110.575
lradius 48.509
lwrist 13.4717
lhand -8.32158 10.4009
lfingers 7.12502
lthumb 17.5994 39.6243
rfemur -34.1493 7.47153 19.4529
rtibia 42.2963
rfoot -11.9434 -5.82631
rtoes 16.1148
lfemur 21.4654 14.7775 -20.0156
ltibia 29.1447
lfoot 9.74326 1.41993
ltoes -10.9682
2254
root 19.7374 16.207 -8.76768 1728.66 94.6072 290.547
lowerback -0.686257 -6.22496 -4.85339
upperback 2.61005 -8.25889 2.84585
thorax 4.20776 -4.30435 5.21983
lowerneck -13.9264 -5.95059 0.276952
upperneck 17.0908 -10.4242 12.304
head 8.3144 -3.60887 2.86647
rclavicle 3.97569e-015 3.18055e-015
rhumerus 100.016 39.5084 11.9144
rradius 82.1086
rwrist -20.1559
rhand -3.94875 6.09631
rfingers 7.12502
rthumb 21.8032 -22.6955
lclavicle 3.97569e-015 3.18055e-015
lhumerus -10.6913 -56.9728 111.292
lradius 47.2752
lwrist 13.4018
lhand -9.29919 10.7766
lfingers 7.12502
lthumb 16.6584 40.0818
rfemur -33.1804 7.51099 20.1642
rtibia 43.0488
rfoot -11.8989 -6.1332
rtoes 17.7534
lfemur 19.7651 14.4185 -18.9741
ltibia 33.5911
lfoot 11.6811 1.85592
ltoes -10.0943
2255
root 19.9672 16.2107 -8.75913 1735.78 94.3653 298.072
lowerback -0.468046 -6.18658 -4.46012
upperback 2.68046 -8.22272 2.97955
thorax 4.11629 -4.27499 5.16771
lowerneck -13.8314 -6.07238 0.146226
upperneck 16.6764 -10.5448 12.4956
head 8.18538 -3.68381 2.93606
rclavicle 1.60916e-013 -2.22639e-014
rhumerus 100.384 40.5447 13.0169
rradius 81.448
rwrist -19.3058
rhand -3.77508 5.98116
rfingers 7.12502
rthumb 21.9699 -22.7912
lclavicle 1.60916e-013 -2.22639e-014
lhumerus -11.4982 -56.908 111.852
lradius 45.9812
lwrist 13.0895
lhand -10.1937 11.1292
lfingers 7.12502
lthumb 15.7971 40.5046
rfemur -32.1138 7.54292 20.8607
rtibia 43.6259
rfoot -12.1053 -6.48629
rtoes 19.3129
lfemur 18.0467 13.9381 -18.0313
ltibia 37.8343
lfoot 13.4247 2.37666
ltoes -10.0197
2256
root 20.1967 16.2202 -8.74604 1743.91 94.2393 306.562
lowerback -0.332839 -6.14093 -4.1119
upperback 2.75624 -8.17142 3.0896
thorax 4.07863 -4.24008 5.1065
lowerneck -13.703 -6.22151 -0.0115331
upperneck 16.2218 -10.7048 12.7725
head 8.04795 -3.77409 3.03421
rclavicle 9.14409e-015 7.95139e-015
rhumerus 100.738 41.6038 14.0664
rradius 80.6018
rwrist -18.4847
rhand -3.68379 5.9201
rfingers 7.12502
rthumb 22.0576 -22.8419
lclavicle 9.14409e-015 7.95139e-015
lhumerus -12.2254 -56.8978 112.282
lradius 44.6367
lwrist 12.5428
lhand -11.0296 11.4613
lfingers 7.12502
lthumb 14.992 40.8986
rfemur -30.9733 7.55562 21.5539
rtibia 44.0158
rfoot -12.5281 -6.94267
rtoes 20.645
lfemur 16.2742 13.3223 -17.1985
ltibia 41.8633
lfoot 14.7916 2.91529
ltoes -10.4266
2257
root 20.4252 16.2358 -8.72854 1752.55 94.2285 315.509
lowerback -0.277169 -6.08468 -3.79773
upperback 2.82901 -8.10265 3.18598
thorax 4.08375 -4.19782 5.04173
lowerneck -13.5575 -6.39447 -0.200415
upperneck 15.7401 -10.8976 13.1192
head 7.90876 -3.87745 3.15682
rclavicle 1.17084e-013 -2.06736e-014
rhumerus 101.093 42.6848 15.0664
rradius 79.5869
rwrist -17.6473
rhand -3.64366 5.89389
rfingers 7.12502
rthumb 22.0961 -22.8636
lclavicle 1.17084e-013 -2.06736e-014
lhumerus -12.8836 -56.8889 112.603
lradius 43.2326
lwrist 11.7959
lhand -11.8296 11.7509
lfingers 7.12502
lthumb 14.2212 41.244
rfemur -29.7874 7.50863 22.2607
rtibia 44.2163
rfoot -13.102 -7.42044
rtoes 21.5972
lfemur 14.4164 12.6023 -16.4587
ltibia 45.6816
lfoot 15.6433 3.39362
ltoes -11.1281
2258
root 20.6515 16.2568 -8.70737 1761.27 94.3209 324.473
lowerback -0.279884 -6.01758 -3.50246
upperback 2.89643 -8.01791 3.28096
thorax 4.11725 -4.14833 4.98047
lowerneck -13.3882 -6.58427 -0.429154
upperneck 15.2282 -11.109 13.5257
head 7.76495 -3.98959 3.30377
rclavicle 2.98177e-015 -3.65764e-014
rhumerus 101.463 43.7925 16.0212
rradius 78.4222
rwrist -16.7469
rhand -3.612 5.91749
rfingers 7.12502
rthumb 22.1265 -22.8364
lclavicle 2.98177e-015 -3.65764e-014
lhumerus -13.4702 -56.8366 112.821
lradius 41.773
lwrist 10.9225
lhand -12.6168 12.0113
lfingers 7.12502
lthumb 13.4625 41.5563
rfemur -28.5709 7.3741 22.9948
rtibia 44.2363
rfoot -13.7559 -7.81135
rtoes 22.1462
lfemur 12.4689 11.804 -15.7792
ltibia 49.2917
lfoot 15.9088 3.71232
ltoes -11.9916
2259
root 20.8742 16.2826 -8.68527 1769.5 94.479 332.908
lowerback -0.298259 -5.92782 -3.18895
upperback 2.94983 -7.9031 3.37747
thorax 4.13958 -4.0825 4.91183
lowerneck -13.2086 -6.78579 -0.691559
upperneck 14.7012 -11.3309 13.965
head 7.62157 -4.10776 3.4657
rclavicle -1.2424e-014 -9.54166e-015
rhumerus 101.841 44.9528 16.9167
rradius 77.13
rwrist -15.7567
rhand -3.5411 5.96732
rfingers 7.12502
rthumb 22.1946 -22.7785
lclavicle -1.2424e-014 -9.54166e-015
lhumerus -13.9986 -56.6936 112.955
lradius 40.2636
lwrist 10.0156
lhand -13.393 12.2549
lfingers 7.12502
lthumb 12.7143 41.8478
rfemur -27.3404 7.12762 23.755
rtibia 44.0934
rfoot -14.4041 -8.05478
rtoes 22.3261
lfemur 10.441 10.9716 -15.1501
ltibia 52.6857
lfoot 15.6334 3.85008
ltoes -12.8516
2260
root 21.0928 16.3124 -8.66463 1776.75 94.6745 340.338
lowerback -0.319494 -5.80857 -2.85408
upperback 2.9911 -7.74908 3.46728
thorax 4.14323 -3.99551 4.82736
lowerneck -13.0195 -6.99607 -0.982199
upperneck 14.1674 -11.5584 14.4183
head 7.47986 -4.23064 3.63621
rclavicle 4.00551e-014 6.36111e-015
rhumerus 102.203 46.1921 17.7259
rradius 75.7244
rwrist -14.6575
rhand -3.40616 6.07587
rfingers 7.12502
rthumb 22.3241 -22.6545
lclavicle 4.00551e-014 6.36111e-015
lhumerus -14.4692 -56.4102 113.005
lradius 38.7117
lwrist 9.14671
lhand -14.1556 12.4926
lfingers 7.12502
lthumb 11.979 42.1298
rfemur -26.1035 6.75707 24.5046
rtibia 43.8155
rfoot -14.9818 -8.13853
rtoes 22.1412
lfemur 8.36694 10.1275 -14.6022
ltibia 55.8393
lfoot 14.9236 3.84314
ltoes -13.5561
2261
root 21.307 16.3452 -8.64565 1782.89 94.8875 346.629
lowerback -0.339024 -5.65733 -2.52016
upperback 3.01534 -7.55219 3.54734
thorax 4.12348 -3.88629 4.7368
lowerneck -12.8303 -7.2119 -1.29038
upperneck 13.6431 -11.7888 14.8659
head 7.34482 -4.35669 3.80727
rclavicle 1.36167e-014 4.77083e-015
rhumerus 102.513 47.532 18.4151
rradius 74.2208
rwrist -13.4571
rhand -3.21454 6.23914
rfingers 7.12502
rthumb 22.508 -22.469
lclavicle 1.36167e-014 4.77083e-015
lhumerus -14.8885 -55.9664 112.975
lradius 37.1349
lwrist 8.40235
lhand -14.9041 12.7347
lfingers 7.12502
lthumb 11.2572 42.4127
rfemur -24.8761 6.29836 25.2129
rtibia 43.435
rfoot -15.463 -8.0686
rtoes 21.8237
lfemur 6.26388 9.28045 -14.1492
ltibia 58.7274
lfoot 13.9515 3.69294
ltoes -14.0368
2262
root 21.5171 16.3806 -8.62839 1787.76 95.0848 351.619
lowerback -0.360924 -5.46713 -2.21397
upperback 3.01916 -7.30251 3.6091
thorax 4.08101 -3.75088 4.64602
lowerneck -12.6415 -7.4334 -1.60962
upperneck 13.137 -12.0241 15.3013
head 7.21866 -4.48631 3.97548
rclavicle 1.63003e-014 3.65764e-014
rhumerus 102.727 49.0061 18.9342
rradius 72.6149
rwrist -12.1586
rhand -2.99905 6.44702
rfingers 7.12502
rthumb 22.7149 -22.236
lclavicle 1.63003e-014 3.65764e-014
lhumerus -15.2603 -55.3752 112.856
lradius 35.5663
lwrist 7.8552
lhand -15.5794 13.0167
lfingers 7.12502
lthumb 10.6059 42.7291
rfemur -23.6757 5.80875 25.8461
rtibia 42.9869
rfoot -15.8472 -7.88587
rtoes 21.5019
lfemur 4.15366 8.44261 -13.8211
ltibia 61.3281
lfoot 12.8909 3.45881
ltoes -14.4691
2263
root 21.7239 16.4181 -8.61255 1791.33 95.2343 355.265
lowerback -0.391085 -5.23164 -1.96457
upperback 2.99812 -6.99115 3.64617
thorax 4.01698 -3.58595 4.5642
lowerneck -12.4595 -7.66048 -1.93335
upperneck 12.6651 -12.2663 15.7104
head 7.10639 -4.61986 4.13488
rclavicle 2.88735e-014 -4.77083e-015
rhumerus 102.802 50.636 19.2372
rradius 70.8998
rwrist -10.7877
rhand -2.7878 6.69263
rfingers 7.12502
rthumb 22.9176 -21.9654
lclavicle 2.88735e-014 -4.77083e-015
lhumerus -15.602 -54.6416 112.658
lradius 34.0286
lwrist 7.53512
lhand -16.1758 13.3453
lfingers 7.12502
lthumb 10.0305 43.0862
rfemur -22.5155 5.35809 26.376
rtibia 42.4988
rfoot -16.1616 -7.63474
rtoes 21.2353
lfemur 2.05075 7.62989 -13.6414
ltibia 63.6302
lfoot 11.8251 3.19205
ltoes -15.1071
2264
root 21.9275 16.4568 -8.59698 1793.78 95.3228 357.734
lowerback -0.441425 -4.95237 -1.79436
upperback 2.94729 -6.61993 3.66057
thorax 3.9363 -3.39338 4.50458
lowerneck -12.2793 -7.89284 -2.26526
upperneck 12.2226 -12.5146 16.0959
head 7.00574 -4.75729 4.28721
rclavicle 8.05078e-015 -3.18055e-015
rhumerus 102.687 52.4266 19.2744
rradius 69.0702
rwrist -9.36571
rhand -2.62972 6.93733
rfingers 7.12502
rthumb 23.0693 -21.7018
lclavicle 8.05078e-015 -3.18055e-015
lhumerus -15.9215 -53.7691 112.379
lradius 32.5536
lwrist 7.45197
lhand -16.6789 13.7255
lfingers 7.12502
lthumb 9.54517 43.4893
rfemur -21.4173 4.9885 26.7991
rtibia 41.9906
rfoot -16.4354 -7.3437
rtoes 21.0937
lfemur -0.0538322 6.84751 -13.6043
ltibia 65.6391
lfoot 10.7776 2.9221
ltoes -15.8425
